<svg width="1546" height="133" viewBox="0 0 1546 133" fill="none" xmlns="http://www.w3.org/2000/svg">
<path d="M0.74 130V2.59999H60.982C75.0567 2.59999 87.4327 5.20866 98.11 10.426C108.787 15.6433 117.099 22.984 123.044 32.448C129.111 41.912 132.144 53.196 132.144 66.3C132.144 79.2827 129.111 90.5667 123.044 100.152C117.099 109.616 108.787 116.957 98.11 122.174C87.4327 127.391 75.0567 130 60.982 130H0.74ZM36.776 101.244H59.526C66.806 101.244 73.1153 99.9093 78.454 97.24C83.914 94.4493 88.1607 90.4453 91.194 85.228C94.2273 79.8893 95.744 73.58 95.744 66.3C95.744 58.8987 94.2273 52.5893 91.194 47.372C88.1607 42.1547 83.914 38.2113 78.454 35.542C73.1153 32.7513 66.806 31.356 59.526 31.356H36.776V101.244ZM176.037 51.922H235.187V78.858H176.037V51.922ZM178.585 102.154H245.197V130H142.913V2.59999H242.831V30.446H178.585V102.154ZM301.777 132.548C291.342 132.548 281.271 131.274 271.565 128.726C261.979 126.057 254.153 122.659 248.087 118.534L259.917 91.962C265.619 95.602 272.171 98.6353 279.573 101.062C287.095 103.367 294.557 104.52 301.959 104.52C306.933 104.52 310.937 104.095 313.971 103.246C317.004 102.275 319.188 101.062 320.523 99.606C321.979 98.0287 322.707 96.2087 322.707 94.146C322.707 91.234 321.372 88.9287 318.703 87.23C316.033 85.5313 312.575 84.136 308.329 83.044C304.082 81.952 299.35 80.86 294.133 79.768C289.037 78.676 283.88 77.2807 278.663 75.582C273.567 73.8833 268.895 71.6993 264.649 69.03C260.402 66.2393 256.944 62.66 254.275 58.292C251.605 53.8027 250.271 48.1607 250.271 41.366C250.271 33.722 252.333 26.806 256.459 20.618C260.705 14.43 267.015 9.45533 275.387 5.69399C283.759 1.93266 294.193 0.0519916 306.691 0.0519916C315.063 0.0519916 323.253 1.02266 331.261 2.964C339.39 4.784 346.609 7.51399 352.919 11.154L341.817 37.908C335.75 34.632 329.744 32.2053 323.799 30.628C317.853 28.9293 312.09 28.08 306.509 28.08C301.534 28.08 297.53 28.626 294.497 29.718C291.463 30.6887 289.279 32.0233 287.945 33.722C286.61 35.4207 285.943 37.362 285.943 39.546C285.943 42.3367 287.217 44.5813 289.765 46.28C292.434 47.8573 295.892 49.192 300.139 50.284C304.507 51.2547 309.239 52.286 314.335 53.378C319.552 54.47 324.709 55.8653 329.805 57.564C335.022 59.1413 339.754 61.3253 344.001 64.116C348.247 66.7853 351.645 70.3647 354.193 74.854C356.862 79.222 358.197 84.7427 358.197 91.416C358.197 98.8173 356.073 105.673 351.827 111.982C347.701 118.17 341.453 123.145 333.081 126.906C324.83 130.667 314.395 132.548 301.777 132.548ZM366.652 130V2.59999H402.688V130H366.652ZM483.836 132.548C473.766 132.548 464.423 130.971 455.808 127.816C447.194 124.54 439.732 119.929 433.422 113.984C427.234 108.039 422.381 101.062 418.862 93.054C415.344 84.9247 413.584 76.0067 413.584 66.3C413.584 56.5933 415.344 47.736 418.862 39.728C422.381 31.5987 427.295 24.5613 433.604 18.616C439.914 12.6707 447.376 8.12066 455.99 4.96599C464.726 1.68999 474.251 0.0519916 484.564 0.0519916C496.576 0.0519916 507.314 2.05399 516.778 6.05799C526.242 10.062 534.068 15.8253 540.256 23.348L517.324 44.096C512.956 39.364 508.224 35.8453 503.128 33.54C498.154 31.1133 492.572 29.9 486.384 29.9C480.924 29.9 475.95 30.7493 471.46 32.448C466.971 34.1467 463.149 36.634 459.994 39.91C456.84 43.0647 454.352 46.8867 452.532 51.376C450.834 55.744 449.984 60.7187 449.984 66.3C449.984 71.6387 450.834 76.5527 452.532 81.042C454.352 85.5313 456.84 89.414 459.994 92.69C463.149 95.8447 466.91 98.332 471.278 100.152C475.768 101.851 480.682 102.7 486.02 102.7C491.359 102.7 496.576 101.851 501.672 100.152C506.768 98.332 511.925 95.2987 517.142 91.052L537.344 116.35C530.064 121.567 521.632 125.571 512.046 128.362C502.461 131.153 493.058 132.548 483.836 132.548ZM505.494 111.618V63.57H537.344V116.35L505.494 111.618ZM552.001 130V2.59999H581.667L651.919 87.412H637.905V2.59999H673.213V130H643.547L573.295 45.188H587.309V130H552.001ZM719.929 130L776.167 2.59999H811.657L868.077 130H830.585L786.541 20.254H800.737L756.693 130H719.929ZM750.687 105.248L759.969 78.676H822.213L831.495 105.248H750.687ZM870.103 130V2.59999H928.343C939.991 2.59999 950.001 4.48066 958.373 8.24199C966.866 12.0033 973.418 17.4633 978.029 24.622C982.639 31.6593 984.945 40.0313 984.945 49.738C984.945 59.3233 982.639 67.6347 978.029 74.672C973.418 81.588 966.866 86.9267 958.373 90.688C950.001 94.328 939.991 96.148 928.343 96.148H890.123L906.139 81.042V130H870.103ZM948.909 130L917.241 83.59H955.643L987.493 130H948.909ZM906.139 84.864L890.123 68.302H926.159C933.681 68.302 939.263 66.664 942.903 63.388C946.664 60.112 948.545 55.562 948.545 49.738C948.545 43.7927 946.664 39.182 942.903 35.906C939.263 32.63 933.681 30.992 926.159 30.992H890.123L906.139 14.43V84.864ZM1060.15 132.548C1050.08 132.548 1040.74 130.971 1032.13 127.816C1023.63 124.54 1016.23 119.929 1009.92 113.984C1003.73 108.039 998.88 101.062 995.361 93.054C991.843 84.9247 990.083 76.0067 990.083 66.3C990.083 56.5933 991.843 47.736 995.361 39.728C998.88 31.5987 1003.73 24.5613 1009.92 18.616C1016.23 12.6707 1023.63 8.12066 1032.13 4.96599C1040.74 1.68999 1050.08 0.0519916 1060.15 0.0519916C1071.92 0.0519916 1082.42 2.11466 1091.64 6.24C1100.98 10.3653 1108.75 16.3107 1114.94 24.076L1092 44.824C1087.88 39.9707 1083.33 36.27 1078.35 33.722C1073.5 31.174 1068.04 29.9 1061.97 29.9C1056.76 29.9 1051.96 30.7493 1047.6 32.448C1043.23 34.1467 1039.47 36.634 1036.31 39.91C1033.28 43.0647 1030.85 46.8867 1029.03 51.376C1027.33 55.8653 1026.48 60.84 1026.48 66.3C1026.48 71.76 1027.33 76.7347 1029.03 81.224C1030.85 85.7133 1033.28 89.596 1036.31 92.872C1039.47 96.0267 1043.23 98.4533 1047.6 100.152C1051.96 101.851 1056.76 102.7 1061.97 102.7C1068.04 102.7 1073.5 101.426 1078.35 98.878C1083.33 96.33 1087.88 92.6293 1092 87.776L1114.94 108.524C1108.75 116.168 1100.98 122.113 1091.64 126.36C1082.42 130.485 1071.92 132.548 1060.15 132.548ZM1207.99 2.59999H1244.02V130H1207.99V2.59999ZM1158.85 130H1122.81V2.59999H1158.85V130ZM1210.54 80.314H1156.3V50.466H1210.54V80.314ZM1261.25 130V2.59999H1297.29V130H1261.25ZM1353.51 130L1299.09 2.59999H1338.04L1383.91 112.892H1360.97L1407.93 2.59999H1443.6L1389 130H1353.51ZM1475.99 51.922H1535.14V78.858H1475.99V51.922ZM1478.54 102.154H1545.15V130H1442.87V2.59999H1542.79V30.446H1478.54V102.154Z" fill="#F6F5E3"/>
</svg>
