<svg width="32" height="32" viewBox="0 0 32 32" fill="none" xmlns="http://www.w3.org/2000/svg">
<path d="M16.0031 2.88181C20.279 2.88181 20.7853 2.90057 22.4669 2.97558C24.0297 3.04434 24.8736 3.3069 25.4362 3.52569C26.1801 3.81325 26.7177 4.16331 27.2741 4.71967C27.8367 5.28228 28.1805 5.81364 28.4681 6.55753C28.6869 7.12014 28.9494 7.97031 29.0182 9.52686C29.0932 11.2147 29.1119 11.721 29.1119 15.9906C29.1119 20.2665 29.0932 20.7728 29.0182 22.4544C28.9494 24.0172 28.6869 24.8611 28.4681 25.4237C28.1805 26.1676 27.8304 26.7052 27.2741 27.2616C26.7115 27.8242 26.1801 28.168 25.4362 28.4556C24.8736 28.6744 24.0234 28.9369 22.4669 29.0057C20.7791 29.0807 20.2727 29.0994 16.0031 29.0994C11.7273 29.0994 11.2209 29.0807 9.53936 29.0057C7.97656 28.9369 7.13264 28.6744 6.57003 28.4556C5.82614 28.168 5.28853 27.8179 4.73217 27.2616C4.16956 26.699 3.82575 26.1676 3.53819 25.4237C3.3194 24.8611 3.05685 24.0109 2.98808 22.4544C2.91307 20.7666 2.89432 20.2602 2.89432 15.9906C2.89432 11.7148 2.91307 11.2084 2.98808 9.52686C3.05685 7.96406 3.3194 7.12014 3.53819 6.55753C3.82575 5.81364 4.17582 5.27603 4.73217 4.71967C5.29478 4.15706 5.82614 3.81325 6.57003 3.52569C7.13264 3.3069 7.98281 3.04434 9.53936 2.97558C11.2209 2.90057 11.7273 2.88181 16.0031 2.88181ZM16.0031 0C11.6585 0 11.1147 0.0187537 9.40809 0.0937683C7.70776 0.168783 6.53878 0.443837 5.52608 0.837664C4.46962 1.25024 3.5757 1.7941 2.68803 2.68803C1.7941 3.5757 1.25024 4.46962 0.837664 5.51983C0.443837 6.53878 0.168783 7.7015 0.0937683 9.40184C0.0187537 11.1147 0 11.6585 0 16.0031C0 20.3477 0.0187537 20.8916 0.0937683 22.5982C0.168783 24.2985 0.443837 25.4675 0.837664 26.4802C1.25024 27.5366 1.7941 28.4306 2.68803 29.3182C3.5757 30.2059 4.46962 30.756 5.51983 31.1623C6.53878 31.5562 7.7015 31.8312 9.40184 31.9062C11.1084 31.9812 11.6523 32 15.9969 32C20.3415 32 20.8853 31.9812 22.5919 31.9062C24.2922 31.8312 25.4612 31.5562 26.4739 31.1623C27.5241 30.756 28.4181 30.2059 29.3057 29.3182C30.1934 28.4306 30.7435 27.5366 31.1498 26.4864C31.5437 25.4675 31.8187 24.3047 31.8937 22.6044C31.9687 20.8978 31.9875 20.354 31.9875 16.0094C31.9875 11.6648 31.9687 11.1209 31.8937 9.41434C31.8187 7.71401 31.5437 6.54503 31.1498 5.53233C30.756 4.46962 30.2122 3.5757 29.3182 2.68803C28.4306 1.80035 27.5366 1.25024 26.4864 0.843915C25.4675 0.450088 24.3047 0.175034 22.6044 0.10002C20.8916 0.0187537 20.3477 0 16.0031 0Z" fill="#F6F5E3"/>
<path d="M16.0055 7.78125C11.4671 7.78125 7.78516 11.4632 7.78516 16.0016C7.78516 20.54 11.4671 24.222 16.0055 24.222C20.5439 24.222 24.2259 20.54 24.2259 16.0016C24.2259 11.4632 20.5439 7.78125 16.0055 7.78125ZM16.0055 21.3339C13.0612 21.3339 10.6732 18.9459 10.6732 16.0016C10.6732 13.0573 13.0612 10.6693 16.0055 10.6693C18.9498 10.6693 21.3378 13.0573 21.3378 16.0016C21.3378 18.9459 18.9498 21.3339 16.0055 21.3339Z" fill="#F6F5E3"/>
<path d="M26.4703 7.45391C26.4703 8.51641 25.6078 9.37266 24.5516 9.37266C23.4891 9.37266 22.6328 8.51016 22.6328 7.45391C22.6328 6.39141 23.4953 5.53516 24.5516 5.53516C25.6078 5.53516 26.4703 6.39766 26.4703 7.45391Z" fill="#F6F5E3"/>
</svg>
