<svg width="153" height="65" viewBox="0 0 153 65" fill="none" xmlns="http://www.w3.org/2000/svg">
<path d="M152.5 32.5C152.5 36.8167 150.443 40.9719 146.634 44.7977C142.823 48.6256 137.283 52.0957 130.398 55.0208C116.63 60.8701 97.5743 64.5 76.5 64.5C55.4257 64.5 36.3702 60.8701 22.6018 55.0208C15.7167 52.0957 10.1771 48.6256 6.36608 44.7977C2.55711 40.9719 0.5 36.8167 0.5 32.5C0.5 28.1833 2.55711 24.0281 6.36608 20.2023C10.1771 16.3744 15.7167 12.9043 22.6018 9.97922C36.3702 4.12994 55.4257 0.5 76.5 0.5C97.5743 0.5 116.63 4.12994 130.398 9.97922C137.283 12.9043 142.823 16.3744 146.634 20.2023C150.443 24.0281 152.5 28.1833 152.5 32.5Z" stroke="#02343F"/>
</svg>
