<svg width="710" height="400" viewBox="0 0 710 400" fill="none" xmlns="http://www.w3.org/2000/svg">
<rect x="0.5" y="0.5" width="709" height="399" rx="29.5" stroke="#F8F8F8"/>
<rect x="115" y="1" width="40" height="399" fill="#F8F8F8"/>
<rect x="556" y="1" width="40" height="399" fill="#F8F8F8"/>
<rect x="507" y="1" width="40" height="399" fill="#F8F8F8"/>
<rect x="458" y="1" width="40" height="399" fill="#F8F8F8"/>
<rect x="409" y="1" width="40" height="399" fill="#F8F8F8"/>
<rect x="360" y="1" width="40" height="399" fill="#F8F8F8"/>
<rect x="311" y="1" width="40" height="399" fill="#F8F8F8"/>
<rect x="262" y="1" width="40" height="399" fill="#F8F8F8"/>
<rect x="213" y="1" width="40" height="399" fill="#F8F8F8"/>
<rect x="164" y="1" width="40" height="399" fill="#F8F8F8"/>
<g opacity="0.5">
<path d="M640.01 205.224C639.391 205.224 638.836 205.149 638.346 205C637.855 204.861 637.418 204.669 637.034 204.424C636.66 204.168 636.335 203.885 636.058 203.576L637.162 202.088C637.524 202.419 637.919 202.707 638.346 202.952C638.783 203.187 639.268 203.304 639.802 203.304C640.207 203.304 640.559 203.24 640.858 203.112C641.167 202.984 641.402 202.797 641.562 202.552C641.732 202.307 641.818 202.008 641.818 201.656C641.818 201.261 641.722 200.925 641.53 200.648C641.348 200.36 641.023 200.141 640.554 199.992C640.084 199.843 639.423 199.768 638.57 199.768V198.072C639.295 198.072 639.866 197.997 640.282 197.848C640.698 197.688 640.991 197.475 641.162 197.208C641.343 196.931 641.434 196.616 641.434 196.264C641.434 195.805 641.295 195.448 641.018 195.192C640.74 194.925 640.351 194.792 639.85 194.792C639.434 194.792 639.044 194.888 638.682 195.08C638.33 195.261 637.978 195.512 637.626 195.832L636.41 194.376C636.932 193.939 637.482 193.592 638.058 193.336C638.634 193.069 639.268 192.936 639.962 192.936C640.719 192.936 641.386 193.059 641.962 193.304C642.548 193.549 643.002 193.907 643.322 194.376C643.642 194.845 643.802 195.416 643.802 196.088C643.802 196.728 643.631 197.277 643.29 197.736C642.948 198.195 642.463 198.547 641.834 198.792V198.872C642.271 198.989 642.666 199.181 643.018 199.448C643.38 199.704 643.663 200.029 643.866 200.424C644.079 200.819 644.186 201.277 644.186 201.8C644.186 202.515 643.994 203.128 643.61 203.64C643.236 204.152 642.73 204.547 642.09 204.824C641.46 205.091 640.767 205.224 640.01 205.224ZM646.391 205V203.08H648.951V195.608H646.791V194.136C647.388 194.029 647.9 193.901 648.327 193.752C648.764 193.592 649.17 193.389 649.543 193.144H651.287V203.08H653.511V205H646.391ZM659.237 205.224C658.437 205.224 657.733 204.995 657.125 204.536C656.527 204.067 656.058 203.373 655.717 202.456C655.386 201.528 655.221 200.381 655.221 199.016C655.221 197.661 655.386 196.536 655.717 195.64C656.058 194.733 656.527 194.056 657.125 193.608C657.733 193.16 658.437 192.936 659.237 192.936C660.047 192.936 660.751 193.165 661.349 193.624C661.946 194.072 662.41 194.744 662.741 195.64C663.082 196.536 663.253 197.661 663.253 199.016C663.253 200.381 663.082 201.528 662.741 202.456C662.41 203.373 661.946 204.067 661.349 204.536C660.751 204.995 660.047 205.224 659.237 205.224ZM659.237 203.384C659.589 203.384 659.898 203.251 660.165 202.984C660.431 202.717 660.639 202.269 660.789 201.64C660.938 201 661.013 200.125 661.013 199.016C661.013 197.917 660.938 197.059 660.789 196.44C660.639 195.811 660.431 195.373 660.165 195.128C659.898 194.872 659.589 194.744 659.237 194.744C658.906 194.744 658.602 194.872 658.325 195.128C658.058 195.373 657.845 195.811 657.685 196.44C657.525 197.059 657.445 197.917 657.445 199.016C657.445 200.125 657.525 201 657.685 201.64C657.845 202.269 658.058 202.717 658.325 202.984C658.602 203.251 658.906 203.384 659.237 203.384Z" fill="#F8F8F8"/>
<path d="M51.2791 205.224C50.6604 205.224 50.1058 205.149 49.6151 205C49.1244 204.861 48.6871 204.669 48.3031 204.424C47.9298 204.168 47.6044 203.885 47.3271 203.576L48.4311 202.088C48.7938 202.419 49.1884 202.707 49.6151 202.952C50.0524 203.187 50.5378 203.304 51.0711 203.304C51.4764 203.304 51.8284 203.24 52.1271 203.112C52.4364 202.984 52.6711 202.797 52.8311 202.552C53.0018 202.307 53.0871 202.008 53.0871 201.656C53.0871 201.261 52.9911 200.925 52.7991 200.648C52.6178 200.36 52.2924 200.141 51.8231 199.992C51.3538 199.843 50.6924 199.768 49.8391 199.768V198.072C50.5644 198.072 51.1351 197.997 51.5511 197.848C51.9671 197.688 52.2604 197.475 52.4311 197.208C52.6124 196.931 52.7031 196.616 52.7031 196.264C52.7031 195.805 52.5644 195.448 52.2871 195.192C52.0098 194.925 51.6204 194.792 51.1191 194.792C50.7031 194.792 50.3138 194.888 49.9511 195.08C49.5991 195.261 49.2471 195.512 48.8951 195.832L47.6791 194.376C48.2018 193.939 48.7511 193.592 49.3271 193.336C49.9031 193.069 50.5378 192.936 51.2311 192.936C51.9884 192.936 52.6551 193.059 53.2311 193.304C53.8178 193.549 54.2711 193.907 54.5911 194.376C54.9111 194.845 55.0711 195.416 55.0711 196.088C55.0711 196.728 54.9004 197.277 54.5591 197.736C54.2178 198.195 53.7324 198.547 53.1031 198.792V198.872C53.5404 198.989 53.9351 199.181 54.2871 199.448C54.6498 199.704 54.9324 200.029 55.1351 200.424C55.3484 200.819 55.4551 201.277 55.4551 201.8C55.4551 202.515 55.2631 203.128 54.8791 203.64C54.5058 204.152 53.9991 204.547 53.3591 204.824C52.7298 205.091 52.0364 205.224 51.2791 205.224ZM57.6606 205V203.08H60.2206V195.608H58.0606V194.136C58.6579 194.029 59.1699 193.901 59.5966 193.752C60.0339 193.592 60.4393 193.389 60.8126 193.144H62.5566V203.08H64.7806V205H57.6606ZM70.5061 205.224C69.7061 205.224 69.0021 204.995 68.3941 204.536C67.7968 204.067 67.3274 203.373 66.9861 202.456C66.6554 201.528 66.4901 200.381 66.4901 199.016C66.4901 197.661 66.6554 196.536 66.9861 195.64C67.3274 194.733 67.7968 194.056 68.3941 193.608C69.0021 193.16 69.7061 192.936 70.5061 192.936C71.3168 192.936 72.0208 193.165 72.6181 193.624C73.2154 194.072 73.6794 194.744 74.0101 195.64C74.3514 196.536 74.5221 197.661 74.5221 199.016C74.5221 200.381 74.3514 201.528 74.0101 202.456C73.6794 203.373 73.2154 204.067 72.6181 204.536C72.0208 204.995 71.3168 205.224 70.5061 205.224ZM70.5061 203.384C70.8581 203.384 71.1674 203.251 71.4341 202.984C71.7008 202.717 71.9088 202.269 72.0581 201.64C72.2074 201 72.2821 200.125 72.2821 199.016C72.2821 197.917 72.2074 197.059 72.0581 196.44C71.9088 195.811 71.7008 195.373 71.4341 195.128C71.1674 194.872 70.8581 194.744 70.5061 194.744C70.1754 194.744 69.8714 194.872 69.5941 195.128C69.3274 195.373 69.1141 195.811 68.9541 196.44C68.7941 197.059 68.7141 197.917 68.7141 199.016C68.7141 200.125 68.7941 201 68.9541 201.64C69.1141 202.269 69.3274 202.717 69.5941 202.984C69.8714 203.251 70.1754 203.384 70.5061 203.384Z" fill="#F8F8F8"/>
<path d="M125.091 205V203.928C126.253 202.893 127.224 201.949 128.003 201.096C128.781 200.232 129.363 199.432 129.747 198.696C130.141 197.96 130.339 197.272 130.339 196.632C130.339 196.205 130.264 195.832 130.115 195.512C129.976 195.181 129.757 194.931 129.459 194.76C129.171 194.579 128.803 194.488 128.355 194.488C127.896 194.488 127.475 194.616 127.091 194.872C126.707 195.117 126.355 195.421 126.035 195.784L124.995 194.76C125.496 194.205 126.024 193.773 126.579 193.464C127.144 193.155 127.816 193 128.595 193C129.309 193 129.933 193.149 130.467 193.448C131 193.736 131.411 194.147 131.699 194.68C131.997 195.203 132.147 195.821 132.147 196.536C132.147 197.293 131.96 198.061 131.587 198.84C131.213 199.608 130.701 200.387 130.051 201.176C129.4 201.955 128.659 202.744 127.827 203.544C128.136 203.512 128.461 203.485 128.803 203.464C129.155 203.432 129.469 203.416 129.747 203.416H132.707V205H125.091ZM138.088 205.224C137.32 205.224 136.648 204.995 136.072 204.536C135.496 204.077 135.048 203.395 134.728 202.488C134.418 201.571 134.264 200.429 134.264 199.064C134.264 197.699 134.418 196.568 134.728 195.672C135.048 194.776 135.496 194.109 136.072 193.672C136.648 193.224 137.32 193 138.088 193C138.856 193 139.522 193.224 140.088 193.672C140.653 194.12 141.09 194.792 141.4 195.688C141.72 196.573 141.88 197.699 141.88 199.064C141.88 200.429 141.72 201.571 141.4 202.488C141.09 203.395 140.653 204.077 140.088 204.536C139.522 204.995 138.856 205.224 138.088 205.224ZM138.088 203.752C138.482 203.752 138.834 203.597 139.144 203.288C139.453 202.979 139.693 202.483 139.864 201.8C140.034 201.107 140.12 200.195 140.12 199.064C140.12 197.933 140.034 197.032 139.864 196.36C139.693 195.688 139.453 195.203 139.144 194.904C138.834 194.605 138.482 194.456 138.088 194.456C137.693 194.456 137.341 194.605 137.032 194.904C136.722 195.203 136.477 195.688 136.296 196.36C136.125 197.032 136.04 197.933 136.04 199.064C136.04 200.195 136.125 201.107 136.296 201.8C136.477 202.483 136.722 202.979 137.032 203.288C137.341 203.597 137.693 203.752 138.088 203.752Z" fill="#FC7F71"/>
<path d="M174.237 205V203.928C175.4 202.893 176.371 201.949 177.149 201.096C177.928 200.232 178.509 199.432 178.893 198.696C179.288 197.96 179.485 197.272 179.485 196.632C179.485 196.205 179.411 195.832 179.261 195.512C179.123 195.181 178.904 194.931 178.605 194.76C178.317 194.579 177.949 194.488 177.501 194.488C177.043 194.488 176.621 194.616 176.237 194.872C175.853 195.117 175.501 195.421 175.181 195.784L174.141 194.76C174.643 194.205 175.171 193.773 175.725 193.464C176.291 193.155 176.963 193 177.741 193C178.456 193 179.08 193.149 179.613 193.448C180.147 193.736 180.557 194.147 180.845 194.68C181.144 195.203 181.293 195.821 181.293 196.536C181.293 197.293 181.107 198.061 180.733 198.84C180.36 199.608 179.848 200.387 179.197 201.176C178.547 201.955 177.805 202.744 176.973 203.544C177.283 203.512 177.608 203.485 177.949 203.464C178.301 203.432 178.616 203.416 178.893 203.416H181.853V205H174.237ZM187.234 205.224C186.466 205.224 185.794 204.995 185.218 204.536C184.642 204.077 184.194 203.395 183.874 202.488C183.565 201.571 183.41 200.429 183.41 199.064C183.41 197.699 183.565 196.568 183.874 195.672C184.194 194.776 184.642 194.109 185.218 193.672C185.794 193.224 186.466 193 187.234 193C188.002 193 188.669 193.224 189.234 193.672C189.8 194.12 190.237 194.792 190.546 195.688C190.866 196.573 191.026 197.699 191.026 199.064C191.026 200.429 190.866 201.571 190.546 202.488C190.237 203.395 189.8 204.077 189.234 204.536C188.669 204.995 188.002 205.224 187.234 205.224ZM187.234 203.752C187.629 203.752 187.981 203.597 188.29 203.288C188.6 202.979 188.84 202.483 189.01 201.8C189.181 201.107 189.266 200.195 189.266 199.064C189.266 197.933 189.181 197.032 189.01 196.36C188.84 195.688 188.6 195.203 188.29 194.904C187.981 194.605 187.629 194.456 187.234 194.456C186.84 194.456 186.488 194.605 186.178 194.904C185.869 195.203 185.624 195.688 185.442 196.36C185.272 197.032 185.186 197.933 185.186 199.064C185.186 200.195 185.272 201.107 185.442 201.8C185.624 202.483 185.869 202.979 186.178 203.288C186.488 203.597 186.84 203.752 187.234 203.752Z" fill="#FC7F71"/>
<path d="M223.384 205V203.928C224.546 202.893 225.517 201.949 226.296 201.096C227.074 200.232 227.656 199.432 228.04 198.696C228.434 197.96 228.632 197.272 228.632 196.632C228.632 196.205 228.557 195.832 228.408 195.512C228.269 195.181 228.05 194.931 227.752 194.76C227.464 194.579 227.096 194.488 226.648 194.488C226.189 194.488 225.768 194.616 225.384 194.872C225 195.117 224.648 195.421 224.328 195.784L223.288 194.76C223.789 194.205 224.317 193.773 224.872 193.464C225.437 193.155 226.109 193 226.888 193C227.602 193 228.226 193.149 228.76 193.448C229.293 193.736 229.704 194.147 229.992 194.68C230.29 195.203 230.44 195.821 230.44 196.536C230.44 197.293 230.253 198.061 229.88 198.84C229.506 199.608 228.994 200.387 228.344 201.176C227.693 201.955 226.952 202.744 226.12 203.544C226.429 203.512 226.754 203.485 227.096 203.464C227.448 203.432 227.762 203.416 228.04 203.416H231V205H223.384ZM236.381 205.224C235.613 205.224 234.941 204.995 234.365 204.536C233.789 204.077 233.341 203.395 233.021 202.488C232.711 201.571 232.557 200.429 232.557 199.064C232.557 197.699 232.711 196.568 233.021 195.672C233.341 194.776 233.789 194.109 234.365 193.672C234.941 193.224 235.613 193 236.381 193C237.149 193 237.815 193.224 238.381 193.672C238.946 194.12 239.383 194.792 239.693 195.688C240.013 196.573 240.173 197.699 240.173 199.064C240.173 200.429 240.013 201.571 239.693 202.488C239.383 203.395 238.946 204.077 238.381 204.536C237.815 204.995 237.149 205.224 236.381 205.224ZM236.381 203.752C236.775 203.752 237.127 203.597 237.437 203.288C237.746 202.979 237.986 202.483 238.157 201.8C238.327 201.107 238.413 200.195 238.413 199.064C238.413 197.933 238.327 197.032 238.157 196.36C237.986 195.688 237.746 195.203 237.437 194.904C237.127 194.605 236.775 194.456 236.381 194.456C235.986 194.456 235.634 194.605 235.325 194.904C235.015 195.203 234.77 195.688 234.589 196.36C234.418 197.032 234.333 197.933 234.333 199.064C234.333 200.195 234.418 201.107 234.589 201.8C234.77 202.483 235.015 202.979 235.325 203.288C235.634 203.597 235.986 203.752 236.381 203.752Z" fill="#FC7F71"/>
<path d="M272.53 205V203.928C273.693 202.893 274.663 201.949 275.442 201.096C276.221 200.232 276.802 199.432 277.186 198.696C277.581 197.96 277.778 197.272 277.778 196.632C277.778 196.205 277.703 195.832 277.554 195.512C277.415 195.181 277.197 194.931 276.898 194.76C276.61 194.579 276.242 194.488 275.794 194.488C275.335 194.488 274.914 194.616 274.53 194.872C274.146 195.117 273.794 195.421 273.474 195.784L272.434 194.76C272.935 194.205 273.463 193.773 274.018 193.464C274.583 193.155 275.255 193 276.034 193C276.749 193 277.373 193.149 277.906 193.448C278.439 193.736 278.85 194.147 279.138 194.68C279.437 195.203 279.586 195.821 279.586 196.536C279.586 197.293 279.399 198.061 279.026 198.84C278.653 199.608 278.141 200.387 277.49 201.176C276.839 201.955 276.098 202.744 275.266 203.544C275.575 203.512 275.901 203.485 276.242 203.464C276.594 203.432 276.909 203.416 277.186 203.416H280.146V205H272.53ZM285.527 205.224C284.759 205.224 284.087 204.995 283.511 204.536C282.935 204.077 282.487 203.395 282.167 202.488C281.858 201.571 281.703 200.429 281.703 199.064C281.703 197.699 281.858 196.568 282.167 195.672C282.487 194.776 282.935 194.109 283.511 193.672C284.087 193.224 284.759 193 285.527 193C286.295 193 286.962 193.224 287.527 193.672C288.092 194.12 288.53 194.792 288.839 195.688C289.159 196.573 289.319 197.699 289.319 199.064C289.319 200.429 289.159 201.571 288.839 202.488C288.53 203.395 288.092 204.077 287.527 204.536C286.962 204.995 286.295 205.224 285.527 205.224ZM285.527 203.752C285.922 203.752 286.274 203.597 286.583 203.288C286.892 202.979 287.132 202.483 287.303 201.8C287.474 201.107 287.559 200.195 287.559 199.064C287.559 197.933 287.474 197.032 287.303 196.36C287.132 195.688 286.892 195.203 286.583 194.904C286.274 194.605 285.922 194.456 285.527 194.456C285.132 194.456 284.78 194.605 284.471 194.904C284.162 195.203 283.916 195.688 283.735 196.36C283.564 197.032 283.479 197.933 283.479 199.064C283.479 200.195 283.564 201.107 283.735 201.8C283.916 202.483 284.162 202.979 284.471 203.288C284.78 203.597 285.132 203.752 285.527 203.752Z" fill="#FC7F71"/>
<path d="M321.677 205V203.928C322.839 202.893 323.81 201.949 324.589 201.096C325.367 200.232 325.949 199.432 326.333 198.696C326.727 197.96 326.925 197.272 326.925 196.632C326.925 196.205 326.85 195.832 326.701 195.512C326.562 195.181 326.343 194.931 326.045 194.76C325.757 194.579 325.389 194.488 324.941 194.488C324.482 194.488 324.061 194.616 323.677 194.872C323.293 195.117 322.941 195.421 322.621 195.784L321.581 194.76C322.082 194.205 322.61 193.773 323.165 193.464C323.73 193.155 324.402 193 325.181 193C325.895 193 326.519 193.149 327.053 193.448C327.586 193.736 327.997 194.147 328.285 194.68C328.583 195.203 328.733 195.821 328.733 196.536C328.733 197.293 328.546 198.061 328.173 198.84C327.799 199.608 327.287 200.387 326.637 201.176C325.986 201.955 325.245 202.744 324.413 203.544C324.722 203.512 325.047 203.485 325.389 203.464C325.741 203.432 326.055 203.416 326.333 203.416H329.293V205H321.677ZM334.674 205.224C333.906 205.224 333.234 204.995 332.658 204.536C332.082 204.077 331.634 203.395 331.314 202.488C331.004 201.571 330.85 200.429 330.85 199.064C330.85 197.699 331.004 196.568 331.314 195.672C331.634 194.776 332.082 194.109 332.658 193.672C333.234 193.224 333.906 193 334.674 193C335.442 193 336.108 193.224 336.674 193.672C337.239 194.12 337.676 194.792 337.986 195.688C338.306 196.573 338.466 197.699 338.466 199.064C338.466 200.429 338.306 201.571 337.986 202.488C337.676 203.395 337.239 204.077 336.674 204.536C336.108 204.995 335.442 205.224 334.674 205.224ZM334.674 203.752C335.068 203.752 335.42 203.597 335.73 203.288C336.039 202.979 336.279 202.483 336.45 201.8C336.62 201.107 336.706 200.195 336.706 199.064C336.706 197.933 336.62 197.032 336.45 196.36C336.279 195.688 336.039 195.203 335.73 194.904C335.42 194.605 335.068 194.456 334.674 194.456C334.279 194.456 333.927 194.605 333.618 194.904C333.308 195.203 333.063 195.688 332.882 196.36C332.711 197.032 332.626 197.933 332.626 199.064C332.626 200.195 332.711 201.107 332.882 201.8C333.063 202.483 333.308 202.979 333.618 203.288C333.927 203.597 334.279 203.752 334.674 203.752Z" fill="#FC7F71"/>
<path d="M370.823 205V203.928C371.986 202.893 372.956 201.949 373.735 201.096C374.514 200.232 375.095 199.432 375.479 198.696C375.874 197.96 376.071 197.272 376.071 196.632C376.071 196.205 375.996 195.832 375.847 195.512C375.708 195.181 375.49 194.931 375.191 194.76C374.903 194.579 374.535 194.488 374.087 194.488C373.628 194.488 373.207 194.616 372.823 194.872C372.439 195.117 372.087 195.421 371.767 195.784L370.727 194.76C371.228 194.205 371.756 193.773 372.311 193.464C372.876 193.155 373.548 193 374.327 193C375.042 193 375.666 193.149 376.199 193.448C376.732 193.736 377.143 194.147 377.431 194.68C377.73 195.203 377.879 195.821 377.879 196.536C377.879 197.293 377.692 198.061 377.319 198.84C376.946 199.608 376.434 200.387 375.783 201.176C375.132 201.955 374.391 202.744 373.559 203.544C373.868 203.512 374.194 203.485 374.535 203.464C374.887 203.432 375.202 203.416 375.479 203.416H378.439V205H370.823ZM383.82 205.224C383.052 205.224 382.38 204.995 381.804 204.536C381.228 204.077 380.78 203.395 380.46 202.488C380.151 201.571 379.996 200.429 379.996 199.064C379.996 197.699 380.151 196.568 380.46 195.672C380.78 194.776 381.228 194.109 381.804 193.672C382.38 193.224 383.052 193 383.82 193C384.588 193 385.255 193.224 385.82 193.672C386.385 194.12 386.823 194.792 387.132 195.688C387.452 196.573 387.612 197.699 387.612 199.064C387.612 200.429 387.452 201.571 387.132 202.488C386.823 203.395 386.385 204.077 385.82 204.536C385.255 204.995 384.588 205.224 383.82 205.224ZM383.82 203.752C384.215 203.752 384.567 203.597 384.876 203.288C385.185 202.979 385.425 202.483 385.596 201.8C385.767 201.107 385.852 200.195 385.852 199.064C385.852 197.933 385.767 197.032 385.596 196.36C385.425 195.688 385.185 195.203 384.876 194.904C384.567 194.605 384.215 194.456 383.82 194.456C383.425 194.456 383.073 194.605 382.764 194.904C382.455 195.203 382.209 195.688 382.028 196.36C381.857 197.032 381.772 197.933 381.772 199.064C381.772 200.195 381.857 201.107 382.028 201.8C382.209 202.483 382.455 202.979 382.764 203.288C383.073 203.597 383.425 203.752 383.82 203.752Z" fill="#FC7F71"/>
<path d="M419.97 205V203.928C421.132 202.893 422.103 201.949 422.882 201.096C423.66 200.232 424.242 199.432 424.626 198.696C425.02 197.96 425.218 197.272 425.218 196.632C425.218 196.205 425.143 195.832 424.994 195.512C424.855 195.181 424.636 194.931 424.338 194.76C424.05 194.579 423.682 194.488 423.234 194.488C422.775 194.488 422.354 194.616 421.97 194.872C421.586 195.117 421.234 195.421 420.914 195.784L419.874 194.76C420.375 194.205 420.903 193.773 421.458 193.464C422.023 193.155 422.695 193 423.474 193C424.188 193 424.812 193.149 425.346 193.448C425.879 193.736 426.29 194.147 426.578 194.68C426.876 195.203 427.026 195.821 427.026 196.536C427.026 197.293 426.839 198.061 426.466 198.84C426.092 199.608 425.58 200.387 424.93 201.176C424.279 201.955 423.538 202.744 422.706 203.544C423.015 203.512 423.34 203.485 423.682 203.464C424.034 203.432 424.348 203.416 424.626 203.416H427.586V205H419.97ZM432.967 205.224C432.199 205.224 431.527 204.995 430.951 204.536C430.375 204.077 429.927 203.395 429.607 202.488C429.297 201.571 429.143 200.429 429.143 199.064C429.143 197.699 429.297 196.568 429.607 195.672C429.927 194.776 430.375 194.109 430.951 193.672C431.527 193.224 432.199 193 432.967 193C433.735 193 434.401 193.224 434.967 193.672C435.532 194.12 435.969 194.792 436.279 195.688C436.599 196.573 436.759 197.699 436.759 199.064C436.759 200.429 436.599 201.571 436.279 202.488C435.969 203.395 435.532 204.077 434.967 204.536C434.401 204.995 433.735 205.224 432.967 205.224ZM432.967 203.752C433.361 203.752 433.713 203.597 434.023 203.288C434.332 202.979 434.572 202.483 434.743 201.8C434.913 201.107 434.999 200.195 434.999 199.064C434.999 197.933 434.913 197.032 434.743 196.36C434.572 195.688 434.332 195.203 434.023 194.904C433.713 194.605 433.361 194.456 432.967 194.456C432.572 194.456 432.22 194.605 431.911 194.904C431.601 195.203 431.356 195.688 431.175 196.36C431.004 197.032 430.919 197.933 430.919 199.064C430.919 200.195 431.004 201.107 431.175 201.8C431.356 202.483 431.601 202.979 431.911 203.288C432.22 203.597 432.572 203.752 432.967 203.752Z" fill="#FC7F71"/>
<path d="M469.116 205V203.928C470.279 202.893 471.249 201.949 472.028 201.096C472.807 200.232 473.388 199.432 473.772 198.696C474.167 197.96 474.364 197.272 474.364 196.632C474.364 196.205 474.289 195.832 474.14 195.512C474.001 195.181 473.783 194.931 473.484 194.76C473.196 194.579 472.828 194.488 472.38 194.488C471.921 194.488 471.5 194.616 471.116 194.872C470.732 195.117 470.38 195.421 470.06 195.784L469.02 194.76C469.521 194.205 470.049 193.773 470.604 193.464C471.169 193.155 471.841 193 472.62 193C473.335 193 473.959 193.149 474.492 193.448C475.025 193.736 475.436 194.147 475.724 194.68C476.023 195.203 476.172 195.821 476.172 196.536C476.172 197.293 475.985 198.061 475.612 198.84C475.239 199.608 474.727 200.387 474.076 201.176C473.425 201.955 472.684 202.744 471.852 203.544C472.161 203.512 472.487 203.485 472.828 203.464C473.18 203.432 473.495 203.416 473.772 203.416H476.732V205H469.116ZM482.113 205.224C481.345 205.224 480.673 204.995 480.097 204.536C479.521 204.077 479.073 203.395 478.753 202.488C478.444 201.571 478.289 200.429 478.289 199.064C478.289 197.699 478.444 196.568 478.753 195.672C479.073 194.776 479.521 194.109 480.097 193.672C480.673 193.224 481.345 193 482.113 193C482.881 193 483.548 193.224 484.113 193.672C484.678 194.12 485.116 194.792 485.425 195.688C485.745 196.573 485.905 197.699 485.905 199.064C485.905 200.429 485.745 201.571 485.425 202.488C485.116 203.395 484.678 204.077 484.113 204.536C483.548 204.995 482.881 205.224 482.113 205.224ZM482.113 203.752C482.508 203.752 482.86 203.597 483.169 203.288C483.478 202.979 483.718 202.483 483.889 201.8C484.06 201.107 484.145 200.195 484.145 199.064C484.145 197.933 484.06 197.032 483.889 196.36C483.718 195.688 483.478 195.203 483.169 194.904C482.86 194.605 482.508 194.456 482.113 194.456C481.718 194.456 481.366 194.605 481.057 194.904C480.748 195.203 480.502 195.688 480.321 196.36C480.15 197.032 480.065 197.933 480.065 199.064C480.065 200.195 480.15 201.107 480.321 201.8C480.502 202.483 480.748 202.979 481.057 203.288C481.366 203.597 481.718 203.752 482.113 203.752Z" fill="#FC7F71"/>
<path d="M518.263 205V203.928C519.425 202.893 520.396 201.949 521.175 201.096C521.953 200.232 522.535 199.432 522.919 198.696C523.313 197.96 523.511 197.272 523.511 196.632C523.511 196.205 523.436 195.832 523.287 195.512C523.148 195.181 522.929 194.931 522.631 194.76C522.343 194.579 521.975 194.488 521.527 194.488C521.068 194.488 520.647 194.616 520.263 194.872C519.879 195.117 519.527 195.421 519.207 195.784L518.167 194.76C518.668 194.205 519.196 193.773 519.751 193.464C520.316 193.155 520.988 193 521.767 193C522.481 193 523.105 193.149 523.639 193.448C524.172 193.736 524.583 194.147 524.871 194.68C525.169 195.203 525.319 195.821 525.319 196.536C525.319 197.293 525.132 198.061 524.759 198.84C524.385 199.608 523.873 200.387 523.223 201.176C522.572 201.955 521.831 202.744 520.999 203.544C521.308 203.512 521.633 203.485 521.975 203.464C522.327 203.432 522.641 203.416 522.919 203.416H525.879V205H518.263ZM531.26 205.224C530.492 205.224 529.82 204.995 529.244 204.536C528.668 204.077 528.22 203.395 527.9 202.488C527.59 201.571 527.436 200.429 527.436 199.064C527.436 197.699 527.59 196.568 527.9 195.672C528.22 194.776 528.668 194.109 529.244 193.672C529.82 193.224 530.492 193 531.26 193C532.028 193 532.694 193.224 533.26 193.672C533.825 194.12 534.262 194.792 534.572 195.688C534.892 196.573 535.052 197.699 535.052 199.064C535.052 200.429 534.892 201.571 534.572 202.488C534.262 203.395 533.825 204.077 533.26 204.536C532.694 204.995 532.028 205.224 531.26 205.224ZM531.26 203.752C531.654 203.752 532.006 203.597 532.316 203.288C532.625 202.979 532.865 202.483 533.036 201.8C533.206 201.107 533.292 200.195 533.292 199.064C533.292 197.933 533.206 197.032 533.036 196.36C532.865 195.688 532.625 195.203 532.316 194.904C532.006 194.605 531.654 194.456 531.26 194.456C530.865 194.456 530.513 194.605 530.204 194.904C529.894 195.203 529.649 195.688 529.468 196.36C529.297 197.032 529.212 197.933 529.212 199.064C529.212 200.195 529.297 201.107 529.468 201.8C529.649 202.483 529.894 202.979 530.204 203.288C530.513 203.597 530.865 203.752 531.26 203.752Z" fill="#FC7F71"/>
<path d="M567.409 205V203.928C568.572 202.893 569.542 201.949 570.321 201.096C571.1 200.232 571.681 199.432 572.065 198.696C572.46 197.96 572.657 197.272 572.657 196.632C572.657 196.205 572.582 195.832 572.433 195.512C572.294 195.181 572.076 194.931 571.777 194.76C571.489 194.579 571.121 194.488 570.673 194.488C570.214 194.488 569.793 194.616 569.409 194.872C569.025 195.117 568.673 195.421 568.353 195.784L567.313 194.76C567.814 194.205 568.342 193.773 568.897 193.464C569.462 193.155 570.134 193 570.913 193C571.628 193 572.252 193.149 572.785 193.448C573.318 193.736 573.729 194.147 574.017 194.68C574.316 195.203 574.465 195.821 574.465 196.536C574.465 197.293 574.278 198.061 573.905 198.84C573.532 199.608 573.02 200.387 572.369 201.176C571.718 201.955 570.977 202.744 570.145 203.544C570.454 203.512 570.78 203.485 571.121 203.464C571.473 203.432 571.788 203.416 572.065 203.416H575.025V205H567.409ZM580.406 205.224C579.638 205.224 578.966 204.995 578.39 204.536C577.814 204.077 577.366 203.395 577.046 202.488C576.737 201.571 576.582 200.429 576.582 199.064C576.582 197.699 576.737 196.568 577.046 195.672C577.366 194.776 577.814 194.109 578.39 193.672C578.966 193.224 579.638 193 580.406 193C581.174 193 581.841 193.224 582.406 193.672C582.971 194.12 583.409 194.792 583.718 195.688C584.038 196.573 584.198 197.699 584.198 199.064C584.198 200.429 584.038 201.571 583.718 202.488C583.409 203.395 582.971 204.077 582.406 204.536C581.841 204.995 581.174 205.224 580.406 205.224ZM580.406 203.752C580.801 203.752 581.153 203.597 581.462 203.288C581.771 202.979 582.011 202.483 582.182 201.8C582.353 201.107 582.438 200.195 582.438 199.064C582.438 197.933 582.353 197.032 582.182 196.36C582.011 195.688 581.771 195.203 581.462 194.904C581.153 194.605 580.801 194.456 580.406 194.456C580.011 194.456 579.659 194.605 579.35 194.904C579.041 195.203 578.795 195.688 578.614 196.36C578.443 197.032 578.358 197.933 578.358 199.064C578.358 200.195 578.443 201.107 578.614 201.8C578.795 202.483 579.041 202.979 579.35 203.288C579.659 203.597 580.011 203.752 580.406 203.752Z" fill="#FC7F71"/>
</g>
</svg>
