<svg width="589" height="212" viewBox="0 0 589 212" fill="none" xmlns="http://www.w3.org/2000/svg">
<path d="M60.8358 95.238H64.3198V109.018H60.8358V95.238ZM54.4138 112.112H57.3258V112.424C57.3258 115.83 53.9978 118.716 47.8618 119.262L46.7698 116.714C52.0218 116.298 54.4138 114.166 54.4138 112.424V112.112ZM55.0378 112.112H57.9758V112.398C57.9758 114.062 60.3678 116.246 65.5938 116.688L64.4758 119.236C58.2878 118.69 55.0378 115.674 55.0378 112.398V112.112ZM47.7058 110.37H64.6578V112.97H47.7058V110.37ZM54.4658 108.42H57.9238V111.618H54.4658V108.42ZM45.5218 96.174H48.9278V99.164H53.7898V96.174H57.2218V107.172H45.5218V96.174ZM48.9278 101.79V104.468H53.7898V101.79H48.9278ZM69.2317 97.63H79.6057V100.36H69.2317V97.63ZM72.3257 104.52H75.7317V112.684H72.3257V104.52ZM78.2277 97.63H81.6337V99.58C81.6337 101.92 81.6337 104.832 80.9837 108.836L77.6037 108.524C78.2277 104.676 78.2277 101.894 78.2277 99.58V97.63ZM83.6877 95.238H87.1457V119.314H83.6877V95.238ZM86.1317 104.91H90.3697V107.77H86.1317V104.91ZM68.3217 114.452L68.0097 111.67C72.2477 111.67 77.8637 111.592 82.5957 110.994L82.7777 113.516C77.9157 114.348 72.5077 114.452 68.3217 114.452ZM100.262 97.448H115.524V100.178H100.262V97.448ZM98.0523 113.36H119.814V116.168H98.0523V113.36ZM113.704 97.448H117.136V100.308C117.136 103.688 117.136 106.964 116.278 111.904L112.82 111.618C113.704 106.99 113.704 103.558 113.704 100.308V97.448ZM138.48 95.238H141.964V109.512H138.48V95.238ZM123.192 105.924H125.298C129.978 105.924 133.02 105.846 136.504 105.274L136.894 108.004C133.306 108.628 130.108 108.732 125.298 108.732H123.192V105.924ZM123.166 96.616H134.242V103.87H126.598V107.588H123.192V101.296H130.836V99.346H123.166V96.616ZM125.948 110.604H141.964V119.054H125.948V110.604ZM138.558 113.308H129.328V116.324H138.558V113.308ZM151.27 99.034H154V101.738C154 107.172 151.712 112.71 147.292 114.79L145.342 112.06C149.32 110.188 151.27 105.69 151.27 101.738V99.034ZM151.998 99.034H154.728V101.738C154.728 105.378 156.6 109.642 160.552 111.462L158.654 114.192C154.234 112.138 151.998 106.86 151.998 101.738V99.034ZM146.278 97.552H159.486V100.386H146.278V97.552ZM161.254 95.238H164.738V119.314H161.254V95.238ZM163.958 104.416H168.222V107.276H163.958V104.416Z" fill="#F8F8F8"/>
<circle cx="106" cy="106" r="105.5" stroke="#F8F8F8"/>
<path d="M247.204 109.096H269.018V111.826H247.204V109.096ZM256.304 110.474H259.736V119.314H256.304V110.474ZM249.7 96.148H253.132V98.878H263.012V96.148H266.444V106.808H249.7V96.148ZM253.132 101.582V104.052H263.012V101.582H253.132ZM273.67 106.34H290.596V109.096H273.67V106.34ZM271.148 113.594H292.936V116.428H271.148V113.594ZM273.67 97.214H290.414V100.022H277.102V107.484H273.67V97.214ZM311.732 95.212H315.19V119.366H311.732V95.212ZM307.962 103.896H312.434V106.678H307.962V103.896ZM295.872 110.942H297.848C301.748 110.942 304.842 110.864 308.326 110.266L308.638 113.074C305.076 113.672 301.852 113.802 297.848 113.802H295.872V110.942ZM295.82 97.266H306.662V106.314H299.304V111.8H295.872V103.584H303.256V100.022H295.82V97.266ZM328.11 107.77H331.568V111.592H328.11V107.77ZM329.852 95.576C335.156 95.576 338.562 97.318 338.562 100.23C338.562 103.116 335.156 104.832 329.852 104.832C324.548 104.832 321.142 103.116 321.142 100.23C321.142 97.318 324.548 95.576 329.852 95.576ZM329.852 98.202C326.55 98.202 324.704 98.878 324.704 100.23C324.704 101.556 326.55 102.206 329.852 102.206C333.128 102.206 335 101.556 335 100.23C335 98.878 333.128 98.202 329.852 98.202ZM321.48 110.838H338.12V119.054H321.48V110.838ZM334.74 113.568H324.886V116.324H334.74V113.568ZM318.958 106.054H340.72V108.81H318.958V106.054Z" fill="#F8F8F8"/>
<circle cx="294" cy="106" r="105.5" stroke="#F8F8F8"/>
<path d="M425.14 95.94C428.806 95.94 431.562 98.228 431.562 101.452C431.562 104.65 428.806 106.938 425.14 106.938C421.474 106.938 418.718 104.65 418.718 101.452C418.718 98.228 421.474 95.94 425.14 95.94ZM425.14 98.748C423.372 98.748 422.046 99.736 422.046 101.452C422.046 103.168 423.372 104.156 425.14 104.156C426.908 104.156 428.208 103.168 428.208 101.452C428.208 99.736 426.908 98.748 425.14 98.748ZM434.89 95.238H438.374V107.276H434.89V95.238ZM422.306 108.264H438.374V114.868H425.738V117.78H422.358V112.372H434.942V110.942H422.306V108.264ZM422.358 116.376H438.972V119.054H422.358V116.376ZM447.55 96.538H450.384V98.67C450.384 103.454 448.304 107.666 443.728 109.252L441.882 106.522C445.912 105.17 447.55 101.946 447.55 98.67V96.538ZM448.252 96.538H451.06V99.008C451.06 101.894 452.672 104.702 456.442 105.872L454.648 108.55C450.306 107.094 448.252 103.35 448.252 99.008V96.538ZM457.768 95.238H461.226V109.46H457.768V95.238ZM460.264 100.802H464.424V103.662H460.264V100.802ZM453.374 110.006C458.366 110.006 461.512 111.748 461.512 114.66C461.512 117.598 458.366 119.314 453.374 119.314C448.356 119.314 445.21 117.598 445.21 114.66C445.21 111.748 448.356 110.006 453.374 110.006ZM453.374 112.684C450.306 112.684 448.642 113.334 448.642 114.66C448.642 116.012 450.306 116.636 453.374 116.636C456.442 116.636 458.08 116.012 458.08 114.66C458.08 113.334 456.442 112.684 453.374 112.684ZM472.081 106.912H493.869V109.668H472.081V106.912ZM481.207 103.792H484.639V108.108H481.207V103.792ZM481.155 95.654H484.119V96.382C484.119 100.828 480.583 104.312 474.447 105.196L473.173 102.492C478.581 101.842 481.155 99.086 481.155 96.382V95.654ZM481.727 95.654H484.691V96.382C484.691 99.19 487.213 101.842 492.673 102.492L491.399 105.196C485.263 104.286 481.727 100.932 481.727 96.382V95.654ZM474.499 111.358H491.217V119.314H487.759V114.062H474.499V111.358ZM519.128 95.238H522.404V110.318H519.128V95.238ZM516.19 101.166H520.038V103.974H516.19V101.166ZM514.136 95.706H517.36V109.538H514.136V95.706ZM501.786 97.708H513.46V100.36H501.786V97.708ZM507.662 101.14C510.678 101.14 512.862 102.856 512.862 105.352C512.862 107.848 510.678 109.538 507.662 109.538C504.646 109.538 502.462 107.848 502.462 105.352C502.462 102.856 504.646 101.14 507.662 101.14ZM507.662 103.61C506.388 103.61 505.53 104.234 505.53 105.352C505.53 106.47 506.388 107.094 507.662 107.094C508.91 107.094 509.768 106.47 509.768 105.352C509.768 104.234 508.91 103.61 507.662 103.61ZM505.92 95.472H509.326V99.528H505.92V95.472ZM514.266 110.578C519.414 110.578 522.534 112.138 522.534 114.946C522.534 117.728 519.414 119.314 514.266 119.314C509.092 119.314 505.972 117.728 505.972 114.946C505.972 112.138 509.092 110.578 514.266 110.578ZM514.266 113.152C511.042 113.152 509.43 113.698 509.43 114.946C509.43 116.168 511.042 116.74 514.266 116.74C517.464 116.74 519.076 116.168 519.076 114.946C519.076 113.698 517.464 113.152 514.266 113.152ZM525.808 107.12H547.57V109.902H525.808V107.12ZM534.934 104.052H538.392V107.718H534.934V104.052ZM528.226 111.54H544.944V119.314H541.486V114.27H528.226V111.54ZM528.59 95.836H531.996V97.968H541.382V95.836H544.814V105.144H528.59V95.836ZM531.996 100.542V102.44H541.382V100.542H531.996Z" fill="#F8F8F8"/>
<circle cx="483" cy="106" r="105.5" stroke="#F8F8F8"/>
</svg>
