<svg width="1448" height="507" viewBox="0 0 1448 507" fill="none" xmlns="http://www.w3.org/2000/svg">
<path fill-rule="evenodd" clip-rule="evenodd" d="M462.651 507H466.515L222.129 441.517L221.871 442.483L462.651 507ZM601.769 507H603.769L291.25 326.567L290.75 327.433L601.769 507ZM653.293 507H654.707L392.354 244.646L391.646 245.354L653.293 507ZM682.794 507H683.948L494.433 178.75L493.567 179.25L682.794 507ZM705.284 507H706.319L608.483 141.871L607.517 142.129L705.284 507ZM723.5 507H724.5V137H723.5V507ZM742.618 507H743.653L841.42 142.129L840.455 141.871L742.618 507ZM764.052 507H765.206L954.433 179.25L953.567 178.75L764.052 507ZM793.973 507H795.387L1057.03 245.354L1056.33 244.646L793.973 507ZM844.256 507H846.256L1157.28 327.433L1156.78 326.567L844.256 507ZM982.048 507L1226.43 441.517L1226.69 442.483L985.911 507H982.048ZM1.14875 507H0.0843924C107.556 211.247 391.109 0 724 0C1056.89 0 1340.44 211.247 1447.92 507H1446.85C1339.42 211.81 1056.33 1 724 1C391.669 1 108.575 211.81 1.14875 507Z" fill="#F8F8F8"/>
</svg>
