<svg width="62" height="62" viewBox="0 0 62 62" fill="none" xmlns="http://www.w3.org/2000/svg">
<rect opacity="0.5" width="62" height="62" rx="14" fill="#DEE2D3"/>
<path d="M21.9766 39L26.7166 24.18H30.2166L34.9566 39H31.8366L29.7366 31.28C29.51 30.5067 29.29 29.7067 29.0766 28.88C28.8766 28.04 28.6633 27.2267 28.4366 26.44H28.3566C28.17 27.24 27.9633 28.0533 27.7366 28.88C27.5233 29.7067 27.31 30.5067 27.0966 31.28L24.9766 39H21.9766ZM24.9166 35.2V32.9H31.9566V35.2H24.9166ZM36.4491 39V27.8H39.3891V39H36.4491ZM37.9291 25.98C37.4091 25.98 36.9958 25.84 36.6891 25.56C36.3825 25.2667 36.2291 24.8733 36.2291 24.38C36.2291 23.9 36.3825 23.5133 36.6891 23.22C36.9958 22.9267 37.4091 22.78 37.9291 22.78C38.4225 22.78 38.8291 22.9267 39.1491 23.22C39.4691 23.5133 39.6291 23.9 39.6291 24.38C39.6291 24.8733 39.4691 25.2667 39.1491 25.56C38.8291 25.84 38.4225 25.98 37.9291 25.98Z" fill="#F8F8F8"/>
</svg>
