<svg width="40" height="40" viewBox="0 0 40 40" fill="none" xmlns="http://www.w3.org/2000/svg">
<path d="M14.7272 35.9998C15.6309 35.9998 16.3635 35.2672 16.3635 34.3634C16.3635 33.4597 15.6309 32.7271 14.7272 32.7271C13.8234 32.7271 13.0908 33.4597 13.0908 34.3634C13.0908 35.2672 13.8234 35.9998 14.7272 35.9998Z" stroke="#F8F8F8" stroke-width="2" stroke-linecap="round" stroke-linejoin="round"/>
<path d="M32.7272 35.9998C33.6309 35.9998 34.3635 35.2672 34.3635 34.3634C34.3635 33.4597 33.6309 32.7271 32.7272 32.7271C31.8234 32.7271 31.0908 33.4597 31.0908 34.3634C31.0908 35.2672 31.8234 35.9998 32.7272 35.9998Z" stroke="#F8F8F8" stroke-width="2" stroke-linecap="round" stroke-linejoin="round"/>
<path d="M1.63672 1.63623H8.18217L12.5676 23.5471C12.7173 24.3005 13.1271 24.9773 13.7254 25.4589C14.3237 25.9405 15.0724 26.1964 15.8404 26.1817H31.7458C32.5138 26.1964 33.2624 25.9405 33.8607 25.4589C34.4591 24.9773 34.8689 24.3005 35.0185 23.5471L37.6367 9.81805H9.81854" stroke="#F8F8F8" stroke-width="2" stroke-linecap="round" stroke-linejoin="round"/>
</svg>
