<svg width="62" height="62" viewBox="0 0 62 62" fill="none" xmlns="http://www.w3.org/2000/svg">
<rect opacity="0.5" width="62" height="62" rx="14" fill="#DEE2D3"/>
<path d="M8.63569 37V25.144H15.9317V27.128H11.0037V30.216H15.2117V32.2H11.0037V37H8.63569ZM17.8031 37V28.04H20.1551V37H17.8031ZM18.9871 26.584C18.5711 26.584 18.2404 26.472 17.9951 26.248C17.7497 26.0133 17.6271 25.6987 17.6271 25.304C17.6271 24.92 17.7497 24.6107 17.9951 24.376C18.2404 24.1413 18.5711 24.024 18.9871 24.024C19.3817 24.024 19.7071 24.1413 19.9631 24.376C20.2191 24.6107 20.3471 24.92 20.3471 25.304C20.3471 25.6987 20.2191 26.0133 19.9631 26.248C19.7071 26.472 19.3817 26.584 18.9871 26.584ZM25.8144 40.888C25.1104 40.888 24.4758 40.8027 23.9104 40.632C23.3451 40.472 22.8971 40.2213 22.5664 39.88C22.2464 39.5493 22.0864 39.1173 22.0864 38.584C22.0864 38.2107 22.1931 37.864 22.4064 37.544C22.6198 37.224 22.9398 36.952 23.3664 36.728V36.648C23.1318 36.4987 22.9344 36.3013 22.7744 36.056C22.6251 35.8107 22.5504 35.5013 22.5504 35.128C22.5504 34.7973 22.6464 34.488 22.8384 34.2C23.0411 33.9013 23.2758 33.656 23.5424 33.464V33.4C23.2331 33.176 22.9558 32.8613 22.7104 32.456C22.4651 32.0507 22.3424 31.5813 22.3424 31.048C22.3424 30.344 22.5078 29.752 22.8384 29.272C23.1798 28.792 23.6278 28.4293 24.1824 28.184C24.7371 27.9387 25.3238 27.816 25.9424 27.816C26.2091 27.816 26.4544 27.8373 26.6784 27.88C26.9131 27.9227 27.1264 27.976 27.3184 28.04H30.5344V29.768H29.0144C29.1318 29.928 29.2278 30.1253 29.3024 30.36C29.3771 30.5947 29.4144 30.8507 29.4144 31.128C29.4144 31.8 29.2598 32.3653 28.9504 32.824C28.6411 33.272 28.2251 33.608 27.7024 33.832C27.1798 34.056 26.5931 34.168 25.9424 34.168C25.7824 34.168 25.6011 34.152 25.3984 34.12C25.1958 34.0773 24.9931 34.024 24.7904 33.96C24.6731 34.0667 24.5771 34.1787 24.5024 34.296C24.4384 34.4027 24.4064 34.552 24.4064 34.744C24.4064 34.968 24.5078 35.144 24.7104 35.272C24.9238 35.4 25.2918 35.464 25.8144 35.464H27.3504C28.4278 35.464 29.2544 35.6453 29.8304 36.008C30.4064 36.36 30.6944 36.9253 30.6944 37.704C30.6944 38.312 30.4918 38.8507 30.0864 39.32C29.6918 39.8 29.1264 40.1787 28.3904 40.456C27.6651 40.744 26.8064 40.888 25.8144 40.888ZM25.9424 32.712C26.2091 32.712 26.4491 32.648 26.6624 32.52C26.8758 32.392 27.0464 32.2053 27.1744 31.96C27.3024 31.704 27.3664 31.4 27.3664 31.048C27.3664 30.696 27.3024 30.4027 27.1744 30.168C27.0464 29.9227 26.8758 29.7413 26.6624 29.624C26.4491 29.496 26.2091 29.432 25.9424 29.432C25.6864 29.432 25.4518 29.496 25.2384 29.624C25.0251 29.7413 24.8544 29.9227 24.7264 30.168C24.6091 30.4027 24.5504 30.696 24.5504 31.048C24.5504 31.4 24.6091 31.704 24.7264 31.96C24.8544 32.2053 25.0251 32.392 25.2384 32.52C25.4518 32.648 25.6864 32.712 25.9424 32.712ZM26.1664 39.384C26.6251 39.384 27.0198 39.3253 27.3504 39.208C27.6918 39.0907 27.9584 38.936 28.1504 38.744C28.3424 38.552 28.4384 38.3387 28.4384 38.104C28.4384 37.784 28.3104 37.5653 28.0544 37.448C27.7984 37.3413 27.4304 37.288 26.9504 37.288H25.8464C25.5798 37.288 25.3504 37.2773 25.1584 37.256C24.9664 37.2453 24.7851 37.2187 24.6144 37.176C24.4118 37.336 24.2624 37.5013 24.1664 37.672C24.0811 37.8533 24.0384 38.04 24.0384 38.232C24.0384 38.5947 24.2304 38.8773 24.6144 39.08C24.9984 39.2827 25.5158 39.384 26.1664 39.384ZM32.2093 37V28.04H34.1293L34.3053 29.24H34.3533C34.7266 28.856 35.132 28.5253 35.5693 28.248C36.0066 27.96 36.5186 27.816 37.1053 27.816C37.7453 27.816 38.2573 27.9547 38.6413 28.232C39.036 28.4987 39.34 28.8827 39.5533 29.384C39.98 28.9467 40.4173 28.5787 40.8653 28.28C41.324 27.9707 41.8413 27.816 42.4173 27.816C43.3773 27.816 44.076 28.136 44.5133 28.776C44.9613 29.4053 45.1853 30.2853 45.1853 31.416V37H42.8493V31.704C42.8493 31.0107 42.748 30.5253 42.5453 30.248C42.3426 29.9707 42.028 29.832 41.6013 29.832C41.3453 29.832 41.0733 29.9173 40.7853 30.088C40.508 30.248 40.204 30.4987 39.8733 30.84V37H37.5213V31.704C37.5213 31.0107 37.42 30.5253 37.2173 30.248C37.0146 29.9707 36.7 29.832 36.2733 29.832C36.028 29.832 35.756 29.9173 35.4573 30.088C35.1693 30.248 34.8706 30.4987 34.5613 30.84V37H32.2093ZM49.8232 37.224C49.3005 37.224 48.8365 37.112 48.4312 36.888C48.0365 36.6533 47.7272 36.3333 47.5032 35.928C47.2899 35.5227 47.1832 35.064 47.1832 34.552C47.1832 33.6027 47.5939 32.8667 48.4152 32.344C49.2365 31.8107 50.5432 31.448 52.3352 31.256C52.3245 30.9573 52.2712 30.696 52.1752 30.472C52.0792 30.2373 51.9192 30.0507 51.6952 29.912C51.4819 29.7733 51.1885 29.704 50.8152 29.704C50.3992 29.704 49.9885 29.784 49.5832 29.944C49.1779 30.104 48.7672 30.312 48.3512 30.568L47.5192 29C47.8712 28.776 48.2445 28.5787 48.6392 28.408C49.0339 28.2373 49.4499 28.0987 49.8872 27.992C50.3245 27.8747 50.7779 27.816 51.2472 27.816C52.0045 27.816 52.6392 27.9653 53.1512 28.264C53.6632 28.5627 54.0472 29.0053 54.3032 29.592C54.5592 30.1787 54.6872 30.904 54.6872 31.768V37H52.7672L52.6072 36.04H52.5272C52.1432 36.3813 51.7272 36.664 51.2792 36.888C50.8312 37.112 50.3459 37.224 49.8232 37.224ZM50.6072 35.384C50.9379 35.384 51.2365 35.3093 51.5032 35.16C51.7805 35 52.0579 34.7813 52.3352 34.504V32.712C51.6099 32.7973 51.0339 32.92 50.6072 33.08C50.1805 33.24 49.8765 33.432 49.6952 33.656C49.5139 33.8693 49.4232 34.1093 49.4232 34.376C49.4232 34.728 49.5299 34.984 49.7432 35.144C49.9672 35.304 50.2552 35.384 50.6072 35.384Z" fill="#F8F8F8"/>
</svg>
