<svg width="33" height="33" viewBox="0 0 33 33" fill="none" xmlns="http://www.w3.org/2000/svg">
<path fill-rule="evenodd" clip-rule="evenodd" d="M16.5 0C16.7761 0 17 0.223858 17 0.5V1.5L17 1.50654C22.5033 1.65123 26.3601 4.1807 28.8449 7.38085C31.3899 10.6584 32.5 14.642 32.5 17.5C32.5 17.7761 32.2761 18 32 18H22V21.5C22 21.7761 21.7761 22 21.5 22C21.2239 22 21 21.7761 21 21.5V18H17V31.5H21C21.2761 31.5 21.5 31.7239 21.5 32C21.5 32.2761 21.2761 32.5 21 32.5H12.5C12.2239 32.5 12 32.2761 12 32C12 31.7239 12.2239 31.5 12.5 31.5H16V18H0.5C0.223858 18 0 17.7761 0 17.5C0 14.9206 0.769649 10.9349 3.2213 7.57999C5.62944 4.28465 9.63412 1.63688 16 1.50514L16 1.5V0.5C16 0.223858 16.2239 0 16.5 0ZM21.5 17H31.4881C31.3669 14.3971 30.3122 10.901 28.0551 7.99415C25.6645 4.91534 21.9295 2.5 16.5 2.5C10.1571 2.5 6.30812 5.0508 4.0287 8.17001C1.88314 11.106 1.10404 14.5816 1.00993 17H16.5H21.5Z" fill="#F8F8F8"/>
</svg>
