<svg width="62" height="62" viewBox="0 0 62 62" fill="none" xmlns="http://www.w3.org/2000/svg">
<rect opacity="0.5" width="62" height="62" rx="14" fill="#DEE2D3"/>
<path d="M21.8649 39V24.18H26.7249C27.8183 24.18 28.7983 24.3267 29.6649 24.62C30.5449 24.9133 31.2383 25.4 31.7449 26.08C32.2649 26.7467 32.5249 27.6667 32.5249 28.84C32.5249 29.96 32.2649 30.8867 31.7449 31.62C31.2383 32.34 30.5516 32.8733 29.6849 33.22C28.8316 33.5667 27.8716 33.74 26.8049 33.74H24.8249V39H21.8649ZM24.8249 31.4H26.6049C27.6183 31.4 28.3716 31.1867 28.8649 30.76C29.3716 30.3333 29.6249 29.6933 29.6249 28.84C29.6249 27.9867 29.3583 27.3933 28.8249 27.06C28.3049 26.7133 27.5316 26.54 26.5049 26.54H24.8249V31.4ZM37.8327 39.28C37.0861 39.28 36.3261 39.1333 35.5527 38.84C34.7927 38.5467 34.1327 38.1733 33.5727 37.72L34.9127 35.86C35.4061 36.2333 35.8927 36.5333 36.3727 36.76C36.8661 36.9733 37.3794 37.08 37.9127 37.08C38.4727 37.08 38.8794 36.9733 39.1327 36.76C39.3994 36.5333 39.5327 36.2467 39.5327 35.9C39.5327 35.62 39.4194 35.3867 39.1927 35.2C38.9661 35 38.6727 34.8267 38.3127 34.68C37.9527 34.52 37.5794 34.3667 37.1927 34.22C36.7261 34.0333 36.2594 33.8067 35.7927 33.54C35.3394 33.2733 34.9594 32.9333 34.6527 32.52C34.3461 32.0933 34.1927 31.5667 34.1927 30.94C34.1927 30.2733 34.3661 29.6867 34.7127 29.18C35.0594 28.66 35.5394 28.2533 36.1527 27.96C36.7794 27.6667 37.5194 27.52 38.3727 27.52C39.1861 27.52 39.9061 27.66 40.5327 27.94C41.1727 28.22 41.7194 28.54 42.1727 28.9L40.8527 30.68C40.4527 30.3867 40.0527 30.1533 39.6527 29.98C39.2661 29.8067 38.8661 29.72 38.4527 29.72C37.9327 29.72 37.5527 29.82 37.3127 30.02C37.0727 30.22 36.9527 30.48 36.9527 30.8C36.9527 31.0667 37.0527 31.2933 37.2527 31.48C37.4527 31.6533 37.7261 31.8067 38.0727 31.94C38.4194 32.0733 38.7861 32.2133 39.1727 32.36C39.5461 32.4933 39.9127 32.6533 40.2727 32.84C40.6461 33.0133 40.9861 33.2267 41.2927 33.48C41.5994 33.7333 41.8394 34.0467 42.0127 34.42C42.1994 34.78 42.2927 35.22 42.2927 35.74C42.2927 36.3933 42.1194 36.9933 41.7727 37.54C41.4394 38.0733 40.9394 38.5 40.2727 38.82C39.6194 39.1267 38.8061 39.28 37.8327 39.28Z" fill="#F8F8F8"/>
</svg>
