<svg width="40" height="40" viewBox="0 0 40 40" fill="none" xmlns="http://www.w3.org/2000/svg">
<path d="M17.9997 6.54541H6.54519C5.67721 6.54541 4.84478 6.89021 4.23102 7.50397C3.61727 8.11773 3.27246 8.95016 3.27246 9.81814V32.7272C3.27246 33.5952 3.61727 34.4276 4.23102 35.0414C4.84478 35.6552 5.67721 36 6.54519 36H29.4543C30.3223 36 31.1547 35.6552 31.7684 35.0414C32.3822 34.4276 32.727 33.5952 32.727 32.7272V21.2727" stroke="#F8F8F8" stroke-width="2" stroke-linecap="round" stroke-linejoin="round"/>
<path d="M30.2726 4.09092C30.9236 3.43994 31.8066 3.07422 32.7272 3.07422C33.6478 3.07422 34.5307 3.43994 35.1817 4.09092C35.8327 4.74191 36.1984 5.62484 36.1984 6.54547C36.1984 7.4661 35.8327 8.34903 35.1817 9.00002L19.6363 24.5455L13.0908 26.1818L14.7272 19.6364L30.2726 4.09092Z" stroke="#F8F8F8" stroke-width="2" stroke-linecap="round" stroke-linejoin="round"/>
</svg>
