<svg width="46" height="66" viewBox="0 0 46 66" fill="none" xmlns="http://www.w3.org/2000/svg">
<path d="M26 3C26 1.34315 24.6569 0 23 0C21.3431 0 20 1.34315 20 3H26ZM20.8787 65.1213C22.0503 66.2929 23.9497 66.2929 25.1213 65.1213L44.2132 46.0294C45.3848 44.8579 45.3848 42.9584 44.2132 41.7868C43.0416 40.6152 41.1421 40.6152 39.9706 41.7868L23 58.7574L6.02944 41.7868C4.85786 40.6152 2.95837 40.6152 1.7868 41.7868C0.615223 42.9584 0.615223 44.8579 1.7868 46.0294L20.8787 65.1213ZM20 3V63H26V3H20Z" fill="#0C0C0F"/>
</svg>
