<svg width="24" height="24" viewBox="0 0 24 24" fill="none" xmlns="http://www.w3.org/2000/svg">
<mask id="mask0_207_2271" style="mask-type:alpha" maskUnits="userSpaceOnUse" x="0" y="0" width="24" height="24">
<rect width="24" height="24" fill="#D9D9D9"/>
</mask>
<g mask="url(#mask0_207_2271)">
<path d="M3.80775 24C3.57558 24 3.38292 23.9234 3.22975 23.7703C3.07658 23.6171 3 23.4244 3 23.1923V21.3463C3 21.1141 3.07658 20.9214 3.22975 20.7682C3.38292 20.6151 3.57558 20.5385 3.80775 20.5385H20.1923C20.4244 20.5385 20.6171 20.6151 20.7703 20.7682C20.9234 20.9214 21 21.1141 21 21.3463V23.1923C21 23.4244 20.9234 23.6171 20.7703 23.7703C20.6171 23.9234 20.4244 24 20.1923 24H3.80775ZM7.0095 17C6.8185 17 6.67142 16.924 6.56825 16.772C6.46508 16.6202 6.44808 16.4571 6.51725 16.2828L11.4173 4.2885C11.4494 4.209 11.5013 4.141 11.573 4.0845C11.6448 4.02817 11.7269 4 11.8193 4H12.1808C12.2769 4 12.3599 4.02817 12.4298 4.0845C12.4996 4.141 12.5506 4.209 12.5828 4.2885L17.4693 16.2308C17.5384 16.4179 17.5182 16.5929 17.4087 16.7558C17.2991 16.9186 17.1488 17 16.9578 17C16.8398 17 16.732 16.9686 16.6345 16.9057C16.5372 16.8429 16.4661 16.7525 16.4212 16.6345L15.1193 13.3615H8.8155L7.502 16.6595C7.457 16.7647 7.39317 16.8477 7.3105 16.9087C7.22783 16.9696 7.1275 17 7.0095 17ZM9.16925 12.4H14.7538L12.05 5.6H11.9115L9.16925 12.4Z" fill="#FFD4AF"/>
</g>
</svg>
