<svg width="1547" height="133" viewBox="0 0 1547 133" fill="none" xmlns="http://www.w3.org/2000/svg">
<path d="M0.106001 130V2.59999H57.982C71.814 2.59999 84.008 5.26933 94.564 10.608C105.12 15.8253 113.371 23.166 119.316 32.63C125.261 42.094 128.234 53.3173 128.234 66.3C128.234 79.1613 125.261 90.3847 119.316 99.97C113.371 109.434 105.12 116.835 94.564 122.174C84.008 127.391 71.814 130 57.982 130H0.106001ZM29.59 105.794H56.526C65.0193 105.794 72.36 104.217 78.548 101.062C84.8573 97.786 89.7107 93.1753 93.108 87.23C96.6267 81.2847 98.386 74.308 98.386 66.3C98.386 58.1707 96.6267 51.194 93.108 45.37C89.7107 39.4247 84.8573 34.8747 78.548 31.72C72.36 28.444 65.0193 26.806 56.526 26.806H29.59V105.794ZM171.035 53.924H232.369V76.856H171.035V53.924ZM173.219 106.34H242.561V130H143.917V2.59999H240.195V26.26H173.219V106.34ZM301.329 132.184C291.137 132.184 281.369 130.849 272.027 128.18C262.684 125.389 255.161 121.81 249.459 117.442L259.469 95.238C264.929 99.1207 271.359 102.336 278.761 104.884C286.283 107.311 293.867 108.524 301.511 108.524C307.335 108.524 312.006 107.978 315.525 106.886C319.165 105.673 321.834 104.035 323.533 101.972C325.231 99.9093 326.081 97.5433 326.081 94.874C326.081 91.4767 324.746 88.8073 322.077 86.866C319.407 84.8033 315.889 83.1653 311.521 81.952C307.153 80.6173 302.299 79.404 296.961 78.312C291.743 77.0987 286.465 75.6427 281.127 73.944C275.909 72.2453 271.117 70.0613 266.749 67.392C262.381 64.7227 258.801 61.204 256.011 56.836C253.341 52.468 252.007 46.8867 252.007 40.092C252.007 32.812 253.948 26.1993 257.831 20.254C261.835 14.1873 267.78 9.39466 275.667 5.87599C283.675 2.236 293.685 0.415998 305.697 0.415998C313.705 0.415998 321.591 1.38666 329.357 3.32799C337.122 5.14799 343.977 7.93866 349.923 11.7L340.823 34.086C334.877 30.6887 328.932 28.2013 322.987 26.624C317.041 24.9253 311.217 24.076 305.515 24.076C299.812 24.076 295.141 24.7433 291.501 26.078C287.861 27.4127 285.252 29.172 283.675 31.356C282.097 33.4187 281.309 35.8453 281.309 38.636C281.309 41.912 282.643 44.5813 285.313 46.644C287.982 48.5853 291.501 50.1627 295.869 51.376C300.237 52.5893 305.029 53.8027 310.247 55.016C315.585 56.2293 320.863 57.6247 326.081 59.202C331.419 60.7793 336.273 62.9027 340.641 65.572C345.009 68.2413 348.527 71.76 351.197 76.128C353.987 80.496 355.383 86.0167 355.383 92.69C355.383 99.8487 353.381 106.401 349.377 112.346C345.373 118.291 339.367 123.084 331.359 126.724C323.472 130.364 313.462 132.184 301.329 132.184ZM368.977 130V2.59999H398.461V130H368.977ZM483.66 132.184C473.589 132.184 464.307 130.607 455.814 127.452C447.442 124.176 440.101 119.565 433.792 113.62C427.604 107.675 422.751 100.698 419.232 92.69C415.835 84.682 414.136 75.8853 414.136 66.3C414.136 56.7147 415.835 47.918 419.232 39.91C422.751 31.902 427.665 24.9253 433.974 18.98C440.283 13.0347 447.685 8.48466 456.178 5.32999C464.671 2.05399 474.014 0.415998 484.206 0.415998C495.49 0.415998 505.621 2.29666 514.6 6.05799C523.7 9.81933 531.344 15.2793 537.532 22.438L518.604 39.91C513.993 35.0567 508.958 31.4773 503.498 29.172C498.038 26.7453 492.093 25.532 485.662 25.532C479.474 25.532 473.832 26.5027 468.736 28.444C463.64 30.3853 459.211 33.176 455.45 36.816C451.81 40.456 448.959 44.7633 446.896 49.738C444.955 54.7127 443.984 60.2333 443.984 66.3C443.984 72.2453 444.955 77.7053 446.896 82.68C448.959 87.6547 451.81 92.0227 455.45 95.784C459.211 99.424 463.579 102.215 468.554 104.156C473.65 106.097 479.231 107.068 485.298 107.068C491.122 107.068 496.764 106.158 502.224 104.338C507.805 102.397 513.205 99.1813 518.422 94.692L535.166 115.986C528.25 121.203 520.181 125.207 510.96 127.998C501.86 130.789 492.76 132.184 483.66 132.184ZM508.23 112.164V64.298H535.166V115.986L508.23 112.164ZM556.002 130V2.59999H580.39L655.556 94.328H643.726V2.59999H672.846V130H648.64L573.292 38.272H585.122V130H556.002ZM724.684 130L781.468 2.59999H810.588L867.554 130H836.614L790.022 17.524H801.67L754.896 130H724.684ZM753.076 102.7L760.902 80.314H826.422L834.43 102.7H753.076ZM874.219 130V2.59999H929.365C940.771 2.59999 950.599 4.48066 958.849 8.24199C967.1 11.882 973.47 17.16 977.959 24.076C982.449 30.992 984.693 39.2427 984.693 48.828C984.693 58.292 982.449 66.482 977.959 73.398C973.47 80.1927 967.1 85.41 958.849 89.05C950.599 92.69 940.771 94.51 929.365 94.51H890.599L903.703 81.588V130H874.219ZM955.209 130L923.359 83.772H954.845L987.059 130H955.209ZM903.703 84.864L890.599 71.032H927.727C936.827 71.032 943.622 69.0907 948.111 65.208C952.601 61.204 954.845 55.744 954.845 48.828C954.845 41.7907 952.601 36.3307 948.111 32.448C943.622 28.5653 936.827 26.624 927.727 26.624H890.599L903.703 12.61V84.864ZM1062.47 132.184C1052.64 132.184 1043.48 130.607 1034.99 127.452C1026.62 124.176 1019.34 119.565 1013.15 113.62C1006.96 107.675 1002.11 100.698 998.589 92.69C995.192 84.682 993.493 75.8853 993.493 66.3C993.493 56.7147 995.192 47.918 998.589 39.91C1002.11 31.902 1006.96 24.9253 1013.15 18.98C1019.46 13.0347 1026.8 8.48466 1035.17 5.32999C1043.54 2.05399 1052.7 0.415998 1062.65 0.415998C1073.69 0.415998 1083.64 2.35733 1092.5 6.24C1101.48 10.0013 1109 15.5827 1115.07 22.984L1096.14 40.456C1091.77 35.4813 1086.92 31.7807 1081.58 29.354C1076.24 26.806 1070.42 25.532 1064.11 25.532C1058.16 25.532 1052.7 26.5027 1047.73 28.444C1042.75 30.3853 1038.45 33.176 1034.81 36.816C1031.17 40.456 1028.32 44.7633 1026.25 49.738C1024.31 54.7127 1023.34 60.2333 1023.34 66.3C1023.34 72.3667 1024.31 77.8873 1026.25 82.862C1028.32 87.8367 1031.17 92.144 1034.81 95.784C1038.45 99.424 1042.75 102.215 1047.73 104.156C1052.7 106.097 1058.16 107.068 1064.11 107.068C1070.42 107.068 1076.24 105.855 1081.58 103.428C1086.92 100.88 1091.77 97.058 1096.14 91.962L1115.07 109.434C1109 116.835 1101.48 122.477 1092.5 126.36C1083.64 130.243 1073.63 132.184 1062.47 132.184ZM1215.79 2.59999H1245.27V130H1215.79V2.59999ZM1157.91 130H1128.43V2.59999H1157.91V130ZM1217.97 77.766H1155.73V52.832H1217.97V77.766ZM1268.86 130V2.59999H1298.35V130H1268.86ZM1359.72 130L1304.75 2.59999H1336.6L1384.65 115.44H1365.9L1414.68 2.59999H1443.98L1388.84 130H1359.72ZM1475.18 53.924H1536.52V76.856H1475.18V53.924ZM1477.37 106.34H1546.71V130H1448.07V2.59999H1544.34V26.26H1477.37V106.34Z" fill="#0C0C0F"/>
</svg>
