<svg width="92" height="92" viewBox="0 0 92 92" fill="none" xmlns="http://www.w3.org/2000/svg">
<path d="M44.7724 1.09048C44.9451 -0.363494 47.0549 -0.363494 47.2276 1.09048L48.6749 13.288C50.5437 29.0384 62.9616 41.4563 78.7118 43.3251L90.9094 44.7724C92.3635 44.9451 92.3635 47.0549 90.9094 47.2276L78.7118 48.6749C62.9616 50.5437 50.5437 62.9616 48.6749 78.7118L47.2276 90.9094C47.0549 92.3635 44.9451 92.3635 44.7724 90.9094L43.3251 78.7118C41.4563 62.9616 29.0384 50.5437 13.288 48.6749L1.09048 47.2276C-0.363494 47.0549 -0.363494 44.9451 1.09048 44.7724L13.288 43.3251C29.0384 41.4563 41.4563 29.0384 43.3251 13.288L44.7724 1.09048Z" fill="#0C0C0F"/>
</svg>
