<svg width="71" height="69" viewBox="0 0 71 69" fill="none" xmlns="http://www.w3.org/2000/svg">
<path fill-rule="evenodd" clip-rule="evenodd" d="M19.5 69C26.1235 69 31.9757 65.6977 35.5 60.6497C39.0243 65.6977 44.8765 69 51.5 69C62.2696 69 71 60.2696 71 49.5C71 43.4687 68.2618 38.0769 63.9607 34.5C68.2618 30.9231 71 25.5313 71 19.5C71 8.73045 62.2696 0 51.5 0C44.8765 0 39.0243 3.3023 35.5 8.35027C31.9757 3.3023 26.1235 0 19.5 0C8.73045 0 0 8.73045 0 19.5C0 25.5313 2.7382 30.9231 7.03928 34.5C2.7382 38.0769 0 43.4687 0 49.5C0 60.2696 8.73045 69 19.5 69Z" fill="#0C0C0F"/>
</svg>
