<svg width="32" height="32" viewBox="0 0 32 32" fill="none" xmlns="http://www.w3.org/2000/svg">
<path d="M16 5.33203L11.7333 9.5987L13.8667 11.732L18.1333 7.46537C19.8933 5.70536 22.7733 5.70536 24.5333 7.46536C26.2933 9.22536 26.2933 12.1054 24.5333 13.8654L20.2667 18.132L22.4 20.2654L26.6667 15.9987C29.6107 13.0547 29.6107 8.27603 26.6667 5.33203C23.7227 2.38803 18.944 2.38803 16 5.33203ZM18.1333 20.2654L13.8667 24.532C12.1067 26.292 9.22667 26.292 7.46667 24.532C5.70667 22.772 5.70667 19.892 7.46667 18.132L11.7333 13.8654L9.6 11.732L5.33333 15.9987C2.38933 18.9427 2.38933 23.7214 5.33333 26.6654C8.27733 29.6094 13.056 29.6094 16 26.6654L20.2667 22.3987L18.1333 20.2654ZM10.6667 19.1987L19.2 10.6654L21.3333 12.7987L12.8 21.332L10.6667 19.1987Z" fill="#F8F8F8"/>
</svg>
