<svg width="120" height="52" viewBox="0 0 120 52" fill="none" xmlns="http://www.w3.org/2000/svg">
<path d="M119.5 26C119.5 29.4227 117.901 32.724 114.927 35.7711C111.951 38.8206 107.619 41.5897 102.228 43.926C91.4462 48.598 76.5168 51.5 60 51.5C43.4832 51.5 28.5538 48.598 17.7724 43.926C12.3809 41.5897 8.04939 38.8206 5.07291 35.7711C2.09866 32.724 0.5 29.4227 0.5 26C0.5 22.5773 2.09866 19.276 5.07291 16.2289C8.04939 13.1794 12.3809 10.4103 17.7724 8.074C28.5538 3.40204 43.4832 0.5 60 0.5C76.5168 0.5 91.4462 3.40204 102.228 8.074C107.619 10.4103 111.951 13.1794 114.927 16.2289C117.901 19.276 119.5 22.5773 119.5 26Z" stroke="#0C0C0F"/>
</svg>
